G04 #@! TF.GenerationSoftware,KiCad,Pcbnew,(5.1.5)-3*
G04 #@! TF.CreationDate,2023-10-15T16:11:26+02:00*
G04 #@! TF.ProjectId,486VRM,34383656-524d-42e6-9b69-6361645f7063,rev?*
G04 #@! TF.SameCoordinates,Original*
G04 #@! TF.FileFunction,Legend,Top*
G04 #@! TF.FilePolarity,Positive*
%FSLAX46Y46*%
G04 Gerber Fmt 4.6, Leading zero omitted, Abs format (unit mm)*
G04 Created by KiCad (PCBNEW (5.1.5)-3) date 2023-10-15 16:11:26*
%MOMM*%
%LPD*%
G04 APERTURE LIST*
%ADD10C,0.120000*%
%ADD11C,0.100000*%
%ADD12C,0.200000*%
%ADD13C,0.150000*%
G04 APERTURE END LIST*
D10*
X192700000Y-107460000D02*
X185080000Y-107460000D01*
X192700000Y-111270000D02*
X192700000Y-107460000D01*
X185080000Y-111270000D02*
X192700000Y-111270000D01*
X185080000Y-107460000D02*
X185080000Y-111270000D01*
X192065000Y-102380000D02*
X186985000Y-102380000D01*
X192065000Y-106190000D02*
X192065000Y-102380000D01*
X186985000Y-106190000D02*
X192065000Y-106190000D01*
X186985000Y-102380000D02*
X186985000Y-106190000D01*
X193081000Y-97935000D02*
X186731000Y-97935000D01*
X193081000Y-101745000D02*
X193081000Y-97935000D01*
X186731000Y-101745000D02*
X193081000Y-101745000D01*
X186731000Y-97935000D02*
X186731000Y-101745000D01*
X168316000Y-100094000D02*
X168824000Y-100094000D01*
X168570000Y-99840000D02*
X168570000Y-100348000D01*
X180990000Y-112835000D02*
X180635000Y-113175000D01*
X184445000Y-118890000D02*
X184445000Y-115080000D01*
X185080000Y-118890000D02*
X184445000Y-118890000D01*
X188255000Y-118890000D02*
X185080000Y-118890000D01*
X188255000Y-118255000D02*
X188255000Y-118890000D01*
X188255000Y-115080000D02*
X188255000Y-118255000D01*
X184445000Y-115080000D02*
X188255000Y-115080000D01*
D11*
X185152904Y-115436190D02*
X185152904Y-115793333D01*
X185129095Y-115864761D01*
X185081476Y-115912380D01*
X185010047Y-115936190D01*
X184962428Y-115936190D01*
X185391000Y-115936190D02*
X185391000Y-115436190D01*
X185581476Y-115436190D01*
X185629095Y-115460000D01*
X185652904Y-115483809D01*
X185676714Y-115531428D01*
X185676714Y-115602857D01*
X185652904Y-115650476D01*
X185629095Y-115674285D01*
X185581476Y-115698095D01*
X185391000Y-115698095D01*
X186105285Y-115602857D02*
X186105285Y-115936190D01*
X185986238Y-115412380D02*
X185867190Y-115769523D01*
X186176714Y-115769523D01*
X186914809Y-115674285D02*
X186748142Y-115674285D01*
X186748142Y-115936190D02*
X186748142Y-115436190D01*
X186986238Y-115436190D01*
X187152904Y-115793333D02*
X187391000Y-115793333D01*
X187105285Y-115936190D02*
X187271952Y-115436190D01*
X187438619Y-115936190D01*
X187605285Y-115936190D02*
X187605285Y-115436190D01*
X187891000Y-115936190D01*
X187891000Y-115436190D01*
X185271952Y-116786190D02*
X184986238Y-116786190D01*
X185129095Y-116786190D02*
X185129095Y-116286190D01*
X185081476Y-116357619D01*
X185033857Y-116405238D01*
X184986238Y-116429047D01*
X186105285Y-116286190D02*
X185867190Y-116286190D01*
X185843380Y-116524285D01*
X185867190Y-116500476D01*
X185914809Y-116476666D01*
X186033857Y-116476666D01*
X186081476Y-116500476D01*
X186105285Y-116524285D01*
X186129095Y-116571904D01*
X186129095Y-116690952D01*
X186105285Y-116738571D01*
X186081476Y-116762380D01*
X186033857Y-116786190D01*
X185914809Y-116786190D01*
X185867190Y-116762380D01*
X185843380Y-116738571D01*
X186271952Y-116286190D02*
X186438619Y-116786190D01*
X186605285Y-116286190D01*
X184986238Y-117183809D02*
X185010047Y-117160000D01*
X185057666Y-117136190D01*
X185176714Y-117136190D01*
X185224333Y-117160000D01*
X185248142Y-117183809D01*
X185271952Y-117231428D01*
X185271952Y-117279047D01*
X185248142Y-117350476D01*
X184962428Y-117636190D01*
X185271952Y-117636190D01*
X186129095Y-117160000D02*
X186081476Y-117136190D01*
X186010047Y-117136190D01*
X185938619Y-117160000D01*
X185891000Y-117207619D01*
X185867190Y-117255238D01*
X185843380Y-117350476D01*
X185843380Y-117421904D01*
X185867190Y-117517142D01*
X185891000Y-117564761D01*
X185938619Y-117612380D01*
X186010047Y-117636190D01*
X186057666Y-117636190D01*
X186129095Y-117612380D01*
X186152904Y-117588571D01*
X186152904Y-117421904D01*
X186057666Y-117421904D01*
X186367190Y-117636190D02*
X186367190Y-117136190D01*
X186652904Y-117636190D01*
X186652904Y-117136190D01*
X186891000Y-117636190D02*
X186891000Y-117136190D01*
X187010047Y-117136190D01*
X187081476Y-117160000D01*
X187129095Y-117207619D01*
X187152904Y-117255238D01*
X187176714Y-117350476D01*
X187176714Y-117421904D01*
X187152904Y-117517142D01*
X187129095Y-117564761D01*
X187081476Y-117612380D01*
X187010047Y-117636190D01*
X186891000Y-117636190D01*
X184962428Y-117986190D02*
X185271952Y-117986190D01*
X185105285Y-118176666D01*
X185176714Y-118176666D01*
X185224333Y-118200476D01*
X185248142Y-118224285D01*
X185271952Y-118271904D01*
X185271952Y-118390952D01*
X185248142Y-118438571D01*
X185224333Y-118462380D01*
X185176714Y-118486190D01*
X185033857Y-118486190D01*
X184986238Y-118462380D01*
X184962428Y-118438571D01*
X186105285Y-117986190D02*
X185867190Y-117986190D01*
X185843380Y-118224285D01*
X185867190Y-118200476D01*
X185914809Y-118176666D01*
X186033857Y-118176666D01*
X186081476Y-118200476D01*
X186105285Y-118224285D01*
X186129095Y-118271904D01*
X186129095Y-118390952D01*
X186105285Y-118438571D01*
X186081476Y-118462380D01*
X186033857Y-118486190D01*
X185914809Y-118486190D01*
X185867190Y-118462380D01*
X185843380Y-118438571D01*
X186271952Y-117986190D02*
X186438619Y-118486190D01*
X186605285Y-117986190D01*
X185660904Y-107689190D02*
X185660904Y-108046333D01*
X185637095Y-108117761D01*
X185589476Y-108165380D01*
X185518047Y-108189190D01*
X185470428Y-108189190D01*
X185899000Y-108189190D02*
X185899000Y-107689190D01*
X186089476Y-107689190D01*
X186137095Y-107713000D01*
X186160904Y-107736809D01*
X186184714Y-107784428D01*
X186184714Y-107855857D01*
X186160904Y-107903476D01*
X186137095Y-107927285D01*
X186089476Y-107951095D01*
X185899000Y-107951095D01*
X186351380Y-107689190D02*
X186660904Y-107689190D01*
X186494238Y-107879666D01*
X186565666Y-107879666D01*
X186613285Y-107903476D01*
X186637095Y-107927285D01*
X186660904Y-107974904D01*
X186660904Y-108093952D01*
X186637095Y-108141571D01*
X186613285Y-108165380D01*
X186565666Y-108189190D01*
X186422809Y-108189190D01*
X186375190Y-108165380D01*
X186351380Y-108141571D01*
X185779952Y-109039190D02*
X185494238Y-109039190D01*
X185637095Y-109039190D02*
X185637095Y-108539190D01*
X185589476Y-108610619D01*
X185541857Y-108658238D01*
X185494238Y-108682047D01*
X185994238Y-108848714D02*
X186375190Y-108848714D01*
X186589476Y-108586809D02*
X186613285Y-108563000D01*
X186660904Y-108539190D01*
X186779952Y-108539190D01*
X186827571Y-108563000D01*
X186851380Y-108586809D01*
X186875190Y-108634428D01*
X186875190Y-108682047D01*
X186851380Y-108753476D01*
X186565666Y-109039190D01*
X186875190Y-109039190D01*
X187470428Y-109039190D02*
X187470428Y-108705857D01*
X187470428Y-108753476D02*
X187494238Y-108729666D01*
X187541857Y-108705857D01*
X187613285Y-108705857D01*
X187660904Y-108729666D01*
X187684714Y-108777285D01*
X187684714Y-109039190D01*
X187684714Y-108777285D02*
X187708523Y-108729666D01*
X187756142Y-108705857D01*
X187827571Y-108705857D01*
X187875190Y-108729666D01*
X187899000Y-108777285D01*
X187899000Y-109039190D01*
X188208523Y-109039190D02*
X188160904Y-109015380D01*
X188137095Y-108991571D01*
X188113285Y-108943952D01*
X188113285Y-108801095D01*
X188137095Y-108753476D01*
X188160904Y-108729666D01*
X188208523Y-108705857D01*
X188279952Y-108705857D01*
X188327571Y-108729666D01*
X188351380Y-108753476D01*
X188375190Y-108801095D01*
X188375190Y-108943952D01*
X188351380Y-108991571D01*
X188327571Y-109015380D01*
X188279952Y-109039190D01*
X188208523Y-109039190D01*
X188589476Y-109039190D02*
X188589476Y-108539190D01*
X188589476Y-108729666D02*
X188637095Y-108705857D01*
X188732333Y-108705857D01*
X188779952Y-108729666D01*
X188803761Y-108753476D01*
X188827571Y-108801095D01*
X188827571Y-108943952D01*
X188803761Y-108991571D01*
X188779952Y-109015380D01*
X188732333Y-109039190D01*
X188637095Y-109039190D01*
X188589476Y-109015380D01*
X189113285Y-109039190D02*
X189065666Y-109015380D01*
X189041857Y-108991571D01*
X189018047Y-108943952D01*
X189018047Y-108801095D01*
X189041857Y-108753476D01*
X189065666Y-108729666D01*
X189113285Y-108705857D01*
X189184714Y-108705857D01*
X189232333Y-108729666D01*
X189256142Y-108753476D01*
X189279952Y-108801095D01*
X189279952Y-108943952D01*
X189256142Y-108991571D01*
X189232333Y-109015380D01*
X189184714Y-109039190D01*
X189113285Y-109039190D01*
X189851380Y-109015380D02*
X189899000Y-109039190D01*
X189994238Y-109039190D01*
X190041857Y-109015380D01*
X190065666Y-108967761D01*
X190065666Y-108943952D01*
X190041857Y-108896333D01*
X189994238Y-108872523D01*
X189922809Y-108872523D01*
X189875190Y-108848714D01*
X189851380Y-108801095D01*
X189851380Y-108777285D01*
X189875190Y-108729666D01*
X189922809Y-108705857D01*
X189994238Y-108705857D01*
X190041857Y-108729666D01*
X190470428Y-109015380D02*
X190422809Y-109039190D01*
X190327571Y-109039190D01*
X190279952Y-109015380D01*
X190256142Y-108967761D01*
X190256142Y-108777285D01*
X190279952Y-108729666D01*
X190327571Y-108705857D01*
X190422809Y-108705857D01*
X190470428Y-108729666D01*
X190494238Y-108777285D01*
X190494238Y-108824904D01*
X190256142Y-108872523D01*
X190637095Y-108705857D02*
X190827571Y-108705857D01*
X190708523Y-108539190D02*
X190708523Y-108967761D01*
X190732333Y-109015380D01*
X190779952Y-109039190D01*
X190827571Y-109039190D01*
X185494238Y-109436809D02*
X185518047Y-109413000D01*
X185565666Y-109389190D01*
X185684714Y-109389190D01*
X185732333Y-109413000D01*
X185756142Y-109436809D01*
X185779952Y-109484428D01*
X185779952Y-109532047D01*
X185756142Y-109603476D01*
X185470428Y-109889190D01*
X185779952Y-109889190D01*
X185994238Y-109698714D02*
X186375190Y-109698714D01*
X186565666Y-109389190D02*
X186875190Y-109389190D01*
X186708523Y-109579666D01*
X186779952Y-109579666D01*
X186827571Y-109603476D01*
X186851380Y-109627285D01*
X186875190Y-109674904D01*
X186875190Y-109793952D01*
X186851380Y-109841571D01*
X186827571Y-109865380D01*
X186779952Y-109889190D01*
X186637095Y-109889190D01*
X186589476Y-109865380D01*
X186565666Y-109841571D01*
X187756142Y-109841571D02*
X187732333Y-109865380D01*
X187660904Y-109889190D01*
X187613285Y-109889190D01*
X187541857Y-109865380D01*
X187494238Y-109817761D01*
X187470428Y-109770142D01*
X187446619Y-109674904D01*
X187446619Y-109603476D01*
X187470428Y-109508238D01*
X187494238Y-109460619D01*
X187541857Y-109413000D01*
X187613285Y-109389190D01*
X187660904Y-109389190D01*
X187732333Y-109413000D01*
X187756142Y-109436809D01*
X188208523Y-109889190D02*
X187970428Y-109889190D01*
X187970428Y-109389190D01*
X188375190Y-109889190D02*
X188375190Y-109389190D01*
X188660904Y-109889190D02*
X188446619Y-109603476D01*
X188660904Y-109389190D02*
X188375190Y-109674904D01*
X188875190Y-109889190D02*
X188875190Y-109555857D01*
X188875190Y-109603476D02*
X188899000Y-109579666D01*
X188946619Y-109555857D01*
X189018047Y-109555857D01*
X189065666Y-109579666D01*
X189089476Y-109627285D01*
X189089476Y-109889190D01*
X189089476Y-109627285D02*
X189113285Y-109579666D01*
X189160904Y-109555857D01*
X189232333Y-109555857D01*
X189279952Y-109579666D01*
X189303761Y-109627285D01*
X189303761Y-109889190D01*
X189756142Y-109555857D02*
X189756142Y-109889190D01*
X189541857Y-109555857D02*
X189541857Y-109817761D01*
X189565666Y-109865380D01*
X189613285Y-109889190D01*
X189684714Y-109889190D01*
X189732333Y-109865380D01*
X189756142Y-109841571D01*
X190065666Y-109889190D02*
X190018047Y-109865380D01*
X189994238Y-109817761D01*
X189994238Y-109389190D01*
X190184714Y-109555857D02*
X190375190Y-109555857D01*
X190256142Y-109389190D02*
X190256142Y-109817761D01*
X190279952Y-109865380D01*
X190327571Y-109889190D01*
X190375190Y-109889190D01*
X190541857Y-109889190D02*
X190541857Y-109555857D01*
X190541857Y-109389190D02*
X190518047Y-109413000D01*
X190541857Y-109436809D01*
X190565666Y-109413000D01*
X190541857Y-109389190D01*
X190541857Y-109436809D01*
X191137095Y-109865380D02*
X191184714Y-109889190D01*
X191279952Y-109889190D01*
X191327571Y-109865380D01*
X191351380Y-109817761D01*
X191351380Y-109793952D01*
X191327571Y-109746333D01*
X191279952Y-109722523D01*
X191208523Y-109722523D01*
X191160904Y-109698714D01*
X191137095Y-109651095D01*
X191137095Y-109627285D01*
X191160904Y-109579666D01*
X191208523Y-109555857D01*
X191279952Y-109555857D01*
X191327571Y-109579666D01*
X191756142Y-109865380D02*
X191708523Y-109889190D01*
X191613285Y-109889190D01*
X191565666Y-109865380D01*
X191541857Y-109817761D01*
X191541857Y-109627285D01*
X191565666Y-109579666D01*
X191613285Y-109555857D01*
X191708523Y-109555857D01*
X191756142Y-109579666D01*
X191779952Y-109627285D01*
X191779952Y-109674904D01*
X191541857Y-109722523D01*
X191922809Y-109555857D02*
X192113285Y-109555857D01*
X191994238Y-109389190D02*
X191994238Y-109817761D01*
X192018047Y-109865380D01*
X192065666Y-109889190D01*
X192113285Y-109889190D01*
X185518047Y-110405857D02*
X185518047Y-110739190D01*
X185518047Y-110453476D02*
X185541857Y-110429666D01*
X185589476Y-110405857D01*
X185660904Y-110405857D01*
X185708523Y-110429666D01*
X185732333Y-110477285D01*
X185732333Y-110739190D01*
X186184714Y-110715380D02*
X186137095Y-110739190D01*
X186041857Y-110739190D01*
X185994238Y-110715380D01*
X185970428Y-110691571D01*
X185946619Y-110643952D01*
X185946619Y-110501095D01*
X185970428Y-110453476D01*
X185994238Y-110429666D01*
X186041857Y-110405857D01*
X186137095Y-110405857D01*
X186184714Y-110429666D01*
X187065666Y-110691571D02*
X187041857Y-110715380D01*
X186970428Y-110739190D01*
X186922809Y-110739190D01*
X186851380Y-110715380D01*
X186803761Y-110667761D01*
X186779952Y-110620142D01*
X186756142Y-110524904D01*
X186756142Y-110453476D01*
X186779952Y-110358238D01*
X186803761Y-110310619D01*
X186851380Y-110263000D01*
X186922809Y-110239190D01*
X186970428Y-110239190D01*
X187041857Y-110263000D01*
X187065666Y-110286809D01*
X187518047Y-110739190D02*
X187279952Y-110739190D01*
X187279952Y-110239190D01*
X187684714Y-110739190D02*
X187684714Y-110239190D01*
X187970428Y-110739190D02*
X187756142Y-110453476D01*
X187970428Y-110239190D02*
X187684714Y-110524904D01*
X188184714Y-110739190D02*
X188184714Y-110405857D01*
X188184714Y-110453476D02*
X188208523Y-110429666D01*
X188256142Y-110405857D01*
X188327571Y-110405857D01*
X188375190Y-110429666D01*
X188399000Y-110477285D01*
X188399000Y-110739190D01*
X188399000Y-110477285D02*
X188422809Y-110429666D01*
X188470428Y-110405857D01*
X188541857Y-110405857D01*
X188589476Y-110429666D01*
X188613285Y-110477285D01*
X188613285Y-110739190D01*
X189065666Y-110405857D02*
X189065666Y-110739190D01*
X188851380Y-110405857D02*
X188851380Y-110667761D01*
X188875190Y-110715380D01*
X188922809Y-110739190D01*
X188994238Y-110739190D01*
X189041857Y-110715380D01*
X189065666Y-110691571D01*
X189375190Y-110739190D02*
X189327571Y-110715380D01*
X189303761Y-110667761D01*
X189303761Y-110239190D01*
X189494238Y-110405857D02*
X189684714Y-110405857D01*
X189565666Y-110239190D02*
X189565666Y-110667761D01*
X189589476Y-110715380D01*
X189637095Y-110739190D01*
X189684714Y-110739190D01*
X189851380Y-110739190D02*
X189851380Y-110405857D01*
X189851380Y-110239190D02*
X189827571Y-110263000D01*
X189851380Y-110286809D01*
X189875190Y-110263000D01*
X189851380Y-110239190D01*
X189851380Y-110286809D01*
X190541857Y-110739190D02*
X190494238Y-110715380D01*
X190470428Y-110691571D01*
X190446619Y-110643952D01*
X190446619Y-110501095D01*
X190470428Y-110453476D01*
X190494238Y-110429666D01*
X190541857Y-110405857D01*
X190613285Y-110405857D01*
X190660904Y-110429666D01*
X190684714Y-110453476D01*
X190708523Y-110501095D01*
X190708523Y-110643952D01*
X190684714Y-110691571D01*
X190660904Y-110715380D01*
X190613285Y-110739190D01*
X190541857Y-110739190D01*
X190922809Y-110405857D02*
X190922809Y-110905857D01*
X190922809Y-110429666D02*
X190970428Y-110405857D01*
X191065666Y-110405857D01*
X191113285Y-110429666D01*
X191137095Y-110453476D01*
X191160904Y-110501095D01*
X191160904Y-110643952D01*
X191137095Y-110691571D01*
X191113285Y-110715380D01*
X191065666Y-110739190D01*
X190970428Y-110739190D01*
X190922809Y-110715380D01*
X191565666Y-110715380D02*
X191518047Y-110739190D01*
X191422809Y-110739190D01*
X191375190Y-110715380D01*
X191351380Y-110667761D01*
X191351380Y-110477285D01*
X191375190Y-110429666D01*
X191422809Y-110405857D01*
X191518047Y-110405857D01*
X191565666Y-110429666D01*
X191589476Y-110477285D01*
X191589476Y-110524904D01*
X191351380Y-110572523D01*
X191803761Y-110405857D02*
X191803761Y-110739190D01*
X191803761Y-110453476D02*
X191827571Y-110429666D01*
X191875190Y-110405857D01*
X191946619Y-110405857D01*
X191994238Y-110429666D01*
X192018047Y-110477285D01*
X192018047Y-110739190D01*
X187692904Y-102736190D02*
X187692904Y-103093333D01*
X187669095Y-103164761D01*
X187621476Y-103212380D01*
X187550047Y-103236190D01*
X187502428Y-103236190D01*
X187931000Y-103236190D02*
X187931000Y-102736190D01*
X188121476Y-102736190D01*
X188169095Y-102760000D01*
X188192904Y-102783809D01*
X188216714Y-102831428D01*
X188216714Y-102902857D01*
X188192904Y-102950476D01*
X188169095Y-102974285D01*
X188121476Y-102998095D01*
X187931000Y-102998095D01*
X188407190Y-102783809D02*
X188431000Y-102760000D01*
X188478619Y-102736190D01*
X188597666Y-102736190D01*
X188645285Y-102760000D01*
X188669095Y-102783809D01*
X188692904Y-102831428D01*
X188692904Y-102879047D01*
X188669095Y-102950476D01*
X188383380Y-103236190D01*
X188692904Y-103236190D01*
X187811952Y-104086190D02*
X187526238Y-104086190D01*
X187669095Y-104086190D02*
X187669095Y-103586190D01*
X187621476Y-103657619D01*
X187573857Y-103705238D01*
X187526238Y-103729047D01*
X188026238Y-103895714D02*
X188407190Y-103895714D01*
X188621476Y-103633809D02*
X188645285Y-103610000D01*
X188692904Y-103586190D01*
X188811952Y-103586190D01*
X188859571Y-103610000D01*
X188883380Y-103633809D01*
X188907190Y-103681428D01*
X188907190Y-103729047D01*
X188883380Y-103800476D01*
X188597666Y-104086190D01*
X188907190Y-104086190D01*
X190097666Y-103752857D02*
X190097666Y-104086190D01*
X189978619Y-103562380D02*
X189859571Y-103919523D01*
X190169095Y-103919523D01*
X190288142Y-103586190D02*
X190454809Y-104086190D01*
X190621476Y-103586190D01*
X187526238Y-104483809D02*
X187550047Y-104460000D01*
X187597666Y-104436190D01*
X187716714Y-104436190D01*
X187764333Y-104460000D01*
X187788142Y-104483809D01*
X187811952Y-104531428D01*
X187811952Y-104579047D01*
X187788142Y-104650476D01*
X187502428Y-104936190D01*
X187811952Y-104936190D01*
X188026238Y-104745714D02*
X188407190Y-104745714D01*
X188597666Y-104436190D02*
X188907190Y-104436190D01*
X188740523Y-104626666D01*
X188811952Y-104626666D01*
X188859571Y-104650476D01*
X188883380Y-104674285D01*
X188907190Y-104721904D01*
X188907190Y-104840952D01*
X188883380Y-104888571D01*
X188859571Y-104912380D01*
X188811952Y-104936190D01*
X188669095Y-104936190D01*
X188621476Y-104912380D01*
X188597666Y-104888571D01*
X189835761Y-104436190D02*
X190145285Y-104436190D01*
X189978619Y-104626666D01*
X190050047Y-104626666D01*
X190097666Y-104650476D01*
X190121476Y-104674285D01*
X190145285Y-104721904D01*
X190145285Y-104840952D01*
X190121476Y-104888571D01*
X190097666Y-104912380D01*
X190050047Y-104936190D01*
X189907190Y-104936190D01*
X189859571Y-104912380D01*
X189835761Y-104888571D01*
X190359571Y-104888571D02*
X190383380Y-104912380D01*
X190359571Y-104936190D01*
X190335761Y-104912380D01*
X190359571Y-104888571D01*
X190359571Y-104936190D01*
X190811952Y-104602857D02*
X190811952Y-104936190D01*
X190692904Y-104412380D02*
X190573857Y-104769523D01*
X190883380Y-104769523D01*
X191311952Y-104436190D02*
X191073857Y-104436190D01*
X191050047Y-104674285D01*
X191073857Y-104650476D01*
X191121476Y-104626666D01*
X191240523Y-104626666D01*
X191288142Y-104650476D01*
X191311952Y-104674285D01*
X191335761Y-104721904D01*
X191335761Y-104840952D01*
X191311952Y-104888571D01*
X191288142Y-104912380D01*
X191240523Y-104936190D01*
X191121476Y-104936190D01*
X191073857Y-104912380D01*
X191050047Y-104888571D01*
X191478619Y-104436190D02*
X191645285Y-104936190D01*
X191811952Y-104436190D01*
X187550047Y-105452857D02*
X187550047Y-105786190D01*
X187550047Y-105500476D02*
X187573857Y-105476666D01*
X187621476Y-105452857D01*
X187692904Y-105452857D01*
X187740523Y-105476666D01*
X187764333Y-105524285D01*
X187764333Y-105786190D01*
X188216714Y-105762380D02*
X188169095Y-105786190D01*
X188073857Y-105786190D01*
X188026238Y-105762380D01*
X188002428Y-105738571D01*
X187978619Y-105690952D01*
X187978619Y-105548095D01*
X188002428Y-105500476D01*
X188026238Y-105476666D01*
X188073857Y-105452857D01*
X188169095Y-105452857D01*
X188216714Y-105476666D01*
X189907190Y-105286190D02*
X190216714Y-105286190D01*
X190050047Y-105476666D01*
X190121476Y-105476666D01*
X190169095Y-105500476D01*
X190192904Y-105524285D01*
X190216714Y-105571904D01*
X190216714Y-105690952D01*
X190192904Y-105738571D01*
X190169095Y-105762380D01*
X190121476Y-105786190D01*
X189978619Y-105786190D01*
X189931000Y-105762380D01*
X189907190Y-105738571D01*
X190431000Y-105738571D02*
X190454809Y-105762380D01*
X190431000Y-105786190D01*
X190407190Y-105762380D01*
X190431000Y-105738571D01*
X190431000Y-105786190D01*
X190621476Y-105286190D02*
X190931000Y-105286190D01*
X190764333Y-105476666D01*
X190835761Y-105476666D01*
X190883380Y-105500476D01*
X190907190Y-105524285D01*
X190931000Y-105571904D01*
X190931000Y-105690952D01*
X190907190Y-105738571D01*
X190883380Y-105762380D01*
X190835761Y-105786190D01*
X190692904Y-105786190D01*
X190645285Y-105762380D01*
X190621476Y-105738571D01*
X191073857Y-105286190D02*
X191240523Y-105786190D01*
X191407190Y-105286190D01*
X187438904Y-98291190D02*
X187438904Y-98648333D01*
X187415095Y-98719761D01*
X187367476Y-98767380D01*
X187296047Y-98791190D01*
X187248428Y-98791190D01*
X187677000Y-98791190D02*
X187677000Y-98291190D01*
X187867476Y-98291190D01*
X187915095Y-98315000D01*
X187938904Y-98338809D01*
X187962714Y-98386428D01*
X187962714Y-98457857D01*
X187938904Y-98505476D01*
X187915095Y-98529285D01*
X187867476Y-98553095D01*
X187677000Y-98553095D01*
X188438904Y-98791190D02*
X188153190Y-98791190D01*
X188296047Y-98791190D02*
X188296047Y-98291190D01*
X188248428Y-98362619D01*
X188200809Y-98410238D01*
X188153190Y-98434047D01*
X187557952Y-99641190D02*
X187272238Y-99641190D01*
X187415095Y-99641190D02*
X187415095Y-99141190D01*
X187367476Y-99212619D01*
X187319857Y-99260238D01*
X187272238Y-99284047D01*
X187772238Y-99450714D02*
X188153190Y-99450714D01*
X188367476Y-99188809D02*
X188391285Y-99165000D01*
X188438904Y-99141190D01*
X188557952Y-99141190D01*
X188605571Y-99165000D01*
X188629380Y-99188809D01*
X188653190Y-99236428D01*
X188653190Y-99284047D01*
X188629380Y-99355476D01*
X188343666Y-99641190D01*
X188653190Y-99641190D01*
X189248428Y-99641190D02*
X189248428Y-99307857D01*
X189248428Y-99355476D02*
X189272238Y-99331666D01*
X189319857Y-99307857D01*
X189391285Y-99307857D01*
X189438904Y-99331666D01*
X189462714Y-99379285D01*
X189462714Y-99641190D01*
X189462714Y-99379285D02*
X189486523Y-99331666D01*
X189534142Y-99307857D01*
X189605571Y-99307857D01*
X189653190Y-99331666D01*
X189677000Y-99379285D01*
X189677000Y-99641190D01*
X189986523Y-99641190D02*
X189938904Y-99617380D01*
X189915095Y-99593571D01*
X189891285Y-99545952D01*
X189891285Y-99403095D01*
X189915095Y-99355476D01*
X189938904Y-99331666D01*
X189986523Y-99307857D01*
X190057952Y-99307857D01*
X190105571Y-99331666D01*
X190129380Y-99355476D01*
X190153190Y-99403095D01*
X190153190Y-99545952D01*
X190129380Y-99593571D01*
X190105571Y-99617380D01*
X190057952Y-99641190D01*
X189986523Y-99641190D01*
X190367476Y-99641190D02*
X190367476Y-99141190D01*
X190367476Y-99331666D02*
X190415095Y-99307857D01*
X190510333Y-99307857D01*
X190557952Y-99331666D01*
X190581761Y-99355476D01*
X190605571Y-99403095D01*
X190605571Y-99545952D01*
X190581761Y-99593571D01*
X190557952Y-99617380D01*
X190510333Y-99641190D01*
X190415095Y-99641190D01*
X190367476Y-99617380D01*
X190891285Y-99641190D02*
X190843666Y-99617380D01*
X190819857Y-99593571D01*
X190796047Y-99545952D01*
X190796047Y-99403095D01*
X190819857Y-99355476D01*
X190843666Y-99331666D01*
X190891285Y-99307857D01*
X190962714Y-99307857D01*
X191010333Y-99331666D01*
X191034142Y-99355476D01*
X191057952Y-99403095D01*
X191057952Y-99545952D01*
X191034142Y-99593571D01*
X191010333Y-99617380D01*
X190962714Y-99641190D01*
X190891285Y-99641190D01*
X191629380Y-99617380D02*
X191677000Y-99641190D01*
X191772238Y-99641190D01*
X191819857Y-99617380D01*
X191843666Y-99569761D01*
X191843666Y-99545952D01*
X191819857Y-99498333D01*
X191772238Y-99474523D01*
X191700809Y-99474523D01*
X191653190Y-99450714D01*
X191629380Y-99403095D01*
X191629380Y-99379285D01*
X191653190Y-99331666D01*
X191700809Y-99307857D01*
X191772238Y-99307857D01*
X191819857Y-99331666D01*
X192248428Y-99617380D02*
X192200809Y-99641190D01*
X192105571Y-99641190D01*
X192057952Y-99617380D01*
X192034142Y-99569761D01*
X192034142Y-99379285D01*
X192057952Y-99331666D01*
X192105571Y-99307857D01*
X192200809Y-99307857D01*
X192248428Y-99331666D01*
X192272238Y-99379285D01*
X192272238Y-99426904D01*
X192034142Y-99474523D01*
X192415095Y-99307857D02*
X192605571Y-99307857D01*
X192486523Y-99141190D02*
X192486523Y-99569761D01*
X192510333Y-99617380D01*
X192557952Y-99641190D01*
X192605571Y-99641190D01*
X187272238Y-100038809D02*
X187296047Y-100015000D01*
X187343666Y-99991190D01*
X187462714Y-99991190D01*
X187510333Y-100015000D01*
X187534142Y-100038809D01*
X187557952Y-100086428D01*
X187557952Y-100134047D01*
X187534142Y-100205476D01*
X187248428Y-100491190D01*
X187557952Y-100491190D01*
X187772238Y-100300714D02*
X188153190Y-100300714D01*
X188343666Y-99991190D02*
X188653190Y-99991190D01*
X188486523Y-100181666D01*
X188557952Y-100181666D01*
X188605571Y-100205476D01*
X188629380Y-100229285D01*
X188653190Y-100276904D01*
X188653190Y-100395952D01*
X188629380Y-100443571D01*
X188605571Y-100467380D01*
X188557952Y-100491190D01*
X188415095Y-100491190D01*
X188367476Y-100467380D01*
X188343666Y-100443571D01*
X189200809Y-100157857D02*
X189296047Y-100491190D01*
X189391285Y-100253095D01*
X189486523Y-100491190D01*
X189581761Y-100157857D01*
X189772238Y-100491190D02*
X189772238Y-100157857D01*
X189772238Y-100253095D02*
X189796047Y-100205476D01*
X189819857Y-100181666D01*
X189867476Y-100157857D01*
X189915095Y-100157857D01*
X190081761Y-100491190D02*
X190081761Y-100157857D01*
X190081761Y-99991190D02*
X190057952Y-100015000D01*
X190081761Y-100038809D01*
X190105571Y-100015000D01*
X190081761Y-99991190D01*
X190081761Y-100038809D01*
X190248428Y-100157857D02*
X190438904Y-100157857D01*
X190319857Y-99991190D02*
X190319857Y-100419761D01*
X190343666Y-100467380D01*
X190391285Y-100491190D01*
X190438904Y-100491190D01*
X190796047Y-100467380D02*
X190748428Y-100491190D01*
X190653190Y-100491190D01*
X190605571Y-100467380D01*
X190581761Y-100419761D01*
X190581761Y-100229285D01*
X190605571Y-100181666D01*
X190653190Y-100157857D01*
X190748428Y-100157857D01*
X190796047Y-100181666D01*
X190819857Y-100229285D01*
X190819857Y-100276904D01*
X190581761Y-100324523D01*
X191034142Y-100491190D02*
X191034142Y-99991190D01*
X191034142Y-100181666D02*
X191081761Y-100157857D01*
X191177000Y-100157857D01*
X191224619Y-100181666D01*
X191248428Y-100205476D01*
X191272238Y-100253095D01*
X191272238Y-100395952D01*
X191248428Y-100443571D01*
X191224619Y-100467380D01*
X191177000Y-100491190D01*
X191081761Y-100491190D01*
X191034142Y-100467380D01*
X191700809Y-100491190D02*
X191700809Y-100229285D01*
X191677000Y-100181666D01*
X191629380Y-100157857D01*
X191534142Y-100157857D01*
X191486523Y-100181666D01*
X191700809Y-100467380D02*
X191653190Y-100491190D01*
X191534142Y-100491190D01*
X191486523Y-100467380D01*
X191462714Y-100419761D01*
X191462714Y-100372142D01*
X191486523Y-100324523D01*
X191534142Y-100300714D01*
X191653190Y-100300714D01*
X191700809Y-100276904D01*
X192153190Y-100467380D02*
X192105571Y-100491190D01*
X192010333Y-100491190D01*
X191962714Y-100467380D01*
X191938904Y-100443571D01*
X191915095Y-100395952D01*
X191915095Y-100253095D01*
X191938904Y-100205476D01*
X191962714Y-100181666D01*
X192010333Y-100157857D01*
X192105571Y-100157857D01*
X192153190Y-100181666D01*
X192367476Y-100491190D02*
X192367476Y-99991190D01*
X192415095Y-100300714D02*
X192557952Y-100491190D01*
X192557952Y-100157857D02*
X192367476Y-100348333D01*
X187296047Y-101007857D02*
X187296047Y-101341190D01*
X187296047Y-101055476D02*
X187319857Y-101031666D01*
X187367476Y-101007857D01*
X187438904Y-101007857D01*
X187486523Y-101031666D01*
X187510333Y-101079285D01*
X187510333Y-101341190D01*
X187962714Y-101317380D02*
X187915095Y-101341190D01*
X187819857Y-101341190D01*
X187772238Y-101317380D01*
X187748428Y-101293571D01*
X187724619Y-101245952D01*
X187724619Y-101103095D01*
X187748428Y-101055476D01*
X187772238Y-101031666D01*
X187819857Y-101007857D01*
X187915095Y-101007857D01*
X187962714Y-101031666D01*
X188510333Y-101007857D02*
X188605571Y-101341190D01*
X188700809Y-101103095D01*
X188796047Y-101341190D01*
X188891285Y-101007857D01*
X189081761Y-101341190D02*
X189081761Y-101007857D01*
X189081761Y-101103095D02*
X189105571Y-101055476D01*
X189129380Y-101031666D01*
X189177000Y-101007857D01*
X189224619Y-101007857D01*
X189391285Y-101341190D02*
X189391285Y-101007857D01*
X189391285Y-100841190D02*
X189367476Y-100865000D01*
X189391285Y-100888809D01*
X189415095Y-100865000D01*
X189391285Y-100841190D01*
X189391285Y-100888809D01*
X189557952Y-101007857D02*
X189748428Y-101007857D01*
X189629380Y-100841190D02*
X189629380Y-101269761D01*
X189653190Y-101317380D01*
X189700809Y-101341190D01*
X189748428Y-101341190D01*
X190105571Y-101317380D02*
X190057952Y-101341190D01*
X189962714Y-101341190D01*
X189915095Y-101317380D01*
X189891285Y-101269761D01*
X189891285Y-101079285D01*
X189915095Y-101031666D01*
X189962714Y-101007857D01*
X190057952Y-101007857D01*
X190105571Y-101031666D01*
X190129380Y-101079285D01*
X190129380Y-101126904D01*
X189891285Y-101174523D01*
X190272238Y-101007857D02*
X190462714Y-101007857D01*
X190343666Y-100841190D02*
X190343666Y-101269761D01*
X190367476Y-101317380D01*
X190415095Y-101341190D01*
X190462714Y-101341190D01*
X190629380Y-101341190D02*
X190629380Y-101007857D01*
X190629380Y-101103095D02*
X190653190Y-101055476D01*
X190677000Y-101031666D01*
X190724619Y-101007857D01*
X190772238Y-101007857D01*
X191010333Y-101341190D02*
X190962714Y-101317380D01*
X190938904Y-101293571D01*
X190915095Y-101245952D01*
X190915095Y-101103095D01*
X190938904Y-101055476D01*
X190962714Y-101031666D01*
X191010333Y-101007857D01*
X191081761Y-101007857D01*
X191129380Y-101031666D01*
X191153190Y-101055476D01*
X191177000Y-101103095D01*
X191177000Y-101245952D01*
X191153190Y-101293571D01*
X191129380Y-101317380D01*
X191081761Y-101341190D01*
X191010333Y-101341190D01*
X191605571Y-101007857D02*
X191605571Y-101341190D01*
X191391285Y-101007857D02*
X191391285Y-101269761D01*
X191415095Y-101317380D01*
X191462714Y-101341190D01*
X191534142Y-101341190D01*
X191581761Y-101317380D01*
X191605571Y-101293571D01*
X192057952Y-101007857D02*
X192057952Y-101412619D01*
X192034142Y-101460238D01*
X192010333Y-101484047D01*
X191962714Y-101507857D01*
X191891285Y-101507857D01*
X191843666Y-101484047D01*
X192057952Y-101317380D02*
X192010333Y-101341190D01*
X191915095Y-101341190D01*
X191867476Y-101317380D01*
X191843666Y-101293571D01*
X191819857Y-101245952D01*
X191819857Y-101103095D01*
X191843666Y-101055476D01*
X191867476Y-101031666D01*
X191915095Y-101007857D01*
X192010333Y-101007857D01*
X192057952Y-101031666D01*
X192296047Y-101341190D02*
X192296047Y-100841190D01*
X192510333Y-101341190D02*
X192510333Y-101079285D01*
X192486523Y-101031666D01*
X192438904Y-101007857D01*
X192367476Y-101007857D01*
X192319857Y-101031666D01*
X192296047Y-101055476D01*
X192677000Y-101007857D02*
X192867476Y-101007857D01*
X192748428Y-100841190D02*
X192748428Y-101269761D01*
X192772238Y-101317380D01*
X192819857Y-101341190D01*
X192867476Y-101341190D01*
D10*
X168772000Y-106194578D02*
X168772000Y-105677422D01*
X167352000Y-106194578D02*
X167352000Y-105677422D01*
D12*
X156965000Y-87500000D02*
G75*
G03X156965000Y-87500000I-100000J0D01*
G01*
D10*
X156745000Y-88500000D02*
X156745000Y-98630000D01*
X157865000Y-87380000D02*
X156745000Y-88500000D01*
X167995000Y-87380000D02*
X157865000Y-87380000D01*
X156745000Y-130080000D02*
X156745000Y-118830000D01*
X167995000Y-132620000D02*
X156745000Y-132620000D01*
X201985000Y-87380000D02*
X201985000Y-98630000D01*
X190735000Y-87380000D02*
X201985000Y-87380000D01*
X201985000Y-130080000D02*
X201985000Y-118830000D01*
X190735000Y-132620000D02*
X201985000Y-132620000D01*
X201985000Y-87380000D02*
X201985000Y-98630000D01*
X190735000Y-87380000D02*
X201985000Y-87380000D01*
X201985000Y-87380000D02*
X201985000Y-98630000D01*
X190735000Y-87380000D02*
X201985000Y-87380000D01*
X169255000Y-103455000D02*
X176015000Y-103455000D01*
X169255000Y-100035000D02*
X169255000Y-103455000D01*
X176015000Y-100035000D02*
X169255000Y-100035000D01*
X176263922Y-122140000D02*
X176781078Y-122140000D01*
X176263922Y-120720000D02*
X176781078Y-120720000D01*
X186423922Y-122140000D02*
X186941078Y-122140000D01*
X186423922Y-120720000D02*
X186941078Y-120720000D01*
X192140000Y-119451078D02*
X192140000Y-118933922D01*
X190720000Y-119451078D02*
X190720000Y-118933922D01*
X168645000Y-115641078D02*
X168645000Y-115123922D01*
X167225000Y-115641078D02*
X167225000Y-115123922D01*
X202292000Y-124545000D02*
X203622000Y-124545000D01*
X202292000Y-125875000D02*
X202292000Y-124545000D01*
X202292000Y-127145000D02*
X204952000Y-127145000D01*
X204952000Y-127145000D02*
X204952000Y-132285000D01*
X202292000Y-127145000D02*
X202292000Y-132285000D01*
X202292000Y-132285000D02*
X204952000Y-132285000D01*
X202292000Y-99780000D02*
X203622000Y-99780000D01*
X202292000Y-101110000D02*
X202292000Y-99780000D01*
X202292000Y-102380000D02*
X204952000Y-102380000D01*
X204952000Y-102380000D02*
X204952000Y-107520000D01*
X202292000Y-102380000D02*
X202292000Y-107520000D01*
X202292000Y-107520000D02*
X204952000Y-107520000D01*
X202292000Y-88985000D02*
X203622000Y-88985000D01*
X202292000Y-90315000D02*
X202292000Y-88985000D01*
X202292000Y-91585000D02*
X204952000Y-91585000D01*
X204952000Y-91585000D02*
X204952000Y-96725000D01*
X202292000Y-91585000D02*
X202292000Y-96725000D01*
X202292000Y-96725000D02*
X204952000Y-96725000D01*
X202292000Y-113115000D02*
X203622000Y-113115000D01*
X202292000Y-114445000D02*
X202292000Y-113115000D01*
X202292000Y-115715000D02*
X204952000Y-115715000D01*
X204952000Y-115715000D02*
X204952000Y-120855000D01*
X202292000Y-115715000D02*
X202292000Y-120855000D01*
X202292000Y-120855000D02*
X204952000Y-120855000D01*
X183440000Y-112835000D02*
X180990000Y-112835000D01*
X181640000Y-116055000D02*
X183440000Y-116055000D01*
X203959078Y-109290000D02*
X203441922Y-109290000D01*
X203959078Y-110710000D02*
X203441922Y-110710000D01*
X186425000Y-101938578D02*
X186425000Y-101421422D01*
X185005000Y-101938578D02*
X185005000Y-101421422D01*
X181984333Y-101938578D02*
X181984333Y-101421422D01*
X180564333Y-101938578D02*
X180564333Y-101421422D01*
X179764000Y-101938578D02*
X179764000Y-101421422D01*
X178344000Y-101938578D02*
X178344000Y-101421422D01*
X177750000Y-115530000D02*
X177750000Y-107530000D01*
X169550000Y-115530000D02*
X169550000Y-107530000D01*
X184204666Y-101938578D02*
X184204666Y-101421422D01*
X182784666Y-101938578D02*
X182784666Y-101421422D01*
X183101078Y-111195000D02*
X182583922Y-111195000D01*
X183101078Y-112615000D02*
X182583922Y-112615000D01*
X179902936Y-107100000D02*
X181107064Y-107100000D01*
X179902936Y-105280000D02*
X181107064Y-105280000D01*
X179902936Y-109640000D02*
X181107064Y-109640000D01*
X179902936Y-107820000D02*
X181107064Y-107820000D01*
X180275000Y-115047064D02*
X180275000Y-113842936D01*
X178455000Y-115047064D02*
X178455000Y-113842936D01*
X176662064Y-117980000D02*
X175457936Y-117980000D01*
X176662064Y-119800000D02*
X175457936Y-119800000D01*
D13*
X166864380Y-106102666D02*
X166388190Y-106436000D01*
X166864380Y-106674095D02*
X165864380Y-106674095D01*
X165864380Y-106293142D01*
X165912000Y-106197904D01*
X165959619Y-106150285D01*
X166054857Y-106102666D01*
X166197714Y-106102666D01*
X166292952Y-106150285D01*
X166340571Y-106197904D01*
X166388190Y-106293142D01*
X166388190Y-106674095D01*
X165864380Y-105245523D02*
X165864380Y-105436000D01*
X165912000Y-105531238D01*
X165959619Y-105578857D01*
X166102476Y-105674095D01*
X166292952Y-105721714D01*
X166673904Y-105721714D01*
X166769142Y-105674095D01*
X166816761Y-105626476D01*
X166864380Y-105531238D01*
X166864380Y-105340761D01*
X166816761Y-105245523D01*
X166769142Y-105197904D01*
X166673904Y-105150285D01*
X166435809Y-105150285D01*
X166340571Y-105197904D01*
X166292952Y-105245523D01*
X166245333Y-105340761D01*
X166245333Y-105531238D01*
X166292952Y-105626476D01*
X166340571Y-105674095D01*
X166435809Y-105721714D01*
X177698333Y-82782380D02*
X178269761Y-82782380D01*
X177984047Y-83782380D02*
X177984047Y-82782380D01*
X178745952Y-83782380D02*
X178650714Y-83734761D01*
X178603095Y-83687142D01*
X178555476Y-83591904D01*
X178555476Y-83306190D01*
X178603095Y-83210952D01*
X178650714Y-83163333D01*
X178745952Y-83115714D01*
X178888809Y-83115714D01*
X178984047Y-83163333D01*
X179031666Y-83210952D01*
X179079285Y-83306190D01*
X179079285Y-83591904D01*
X179031666Y-83687142D01*
X178984047Y-83734761D01*
X178888809Y-83782380D01*
X178745952Y-83782380D01*
X179507857Y-83115714D02*
X179507857Y-84115714D01*
X179507857Y-83163333D02*
X179603095Y-83115714D01*
X179793571Y-83115714D01*
X179888809Y-83163333D01*
X179936428Y-83210952D01*
X179984047Y-83306190D01*
X179984047Y-83591904D01*
X179936428Y-83687142D01*
X179888809Y-83734761D01*
X179793571Y-83782380D01*
X179603095Y-83782380D01*
X179507857Y-83734761D01*
X180936428Y-83782380D02*
X180365000Y-83782380D01*
X180650714Y-83782380D02*
X180650714Y-82782380D01*
X180555476Y-82925238D01*
X180460238Y-83020476D01*
X180365000Y-83068095D01*
X172372142Y-99552142D02*
X172324523Y-99599761D01*
X172181666Y-99647380D01*
X172086428Y-99647380D01*
X171943571Y-99599761D01*
X171848333Y-99504523D01*
X171800714Y-99409285D01*
X171753095Y-99218809D01*
X171753095Y-99075952D01*
X171800714Y-98885476D01*
X171848333Y-98790238D01*
X171943571Y-98695000D01*
X172086428Y-98647380D01*
X172181666Y-98647380D01*
X172324523Y-98695000D01*
X172372142Y-98742619D01*
X173324523Y-99647380D02*
X172753095Y-99647380D01*
X173038809Y-99647380D02*
X173038809Y-98647380D01*
X172943571Y-98790238D01*
X172848333Y-98885476D01*
X172753095Y-98933095D01*
X174276904Y-99647380D02*
X173705476Y-99647380D01*
X173991190Y-99647380D02*
X173991190Y-98647380D01*
X173895952Y-98790238D01*
X173800714Y-98885476D01*
X173705476Y-98933095D01*
X178722142Y-121787142D02*
X178674523Y-121834761D01*
X178531666Y-121882380D01*
X178436428Y-121882380D01*
X178293571Y-121834761D01*
X178198333Y-121739523D01*
X178150714Y-121644285D01*
X178103095Y-121453809D01*
X178103095Y-121310952D01*
X178150714Y-121120476D01*
X178198333Y-121025238D01*
X178293571Y-120930000D01*
X178436428Y-120882380D01*
X178531666Y-120882380D01*
X178674523Y-120930000D01*
X178722142Y-120977619D01*
X179674523Y-121882380D02*
X179103095Y-121882380D01*
X179388809Y-121882380D02*
X179388809Y-120882380D01*
X179293571Y-121025238D01*
X179198333Y-121120476D01*
X179103095Y-121168095D01*
X180293571Y-120882380D02*
X180388809Y-120882380D01*
X180484047Y-120930000D01*
X180531666Y-120977619D01*
X180579285Y-121072857D01*
X180626904Y-121263333D01*
X180626904Y-121501428D01*
X180579285Y-121691904D01*
X180531666Y-121787142D01*
X180484047Y-121834761D01*
X180388809Y-121882380D01*
X180293571Y-121882380D01*
X180198333Y-121834761D01*
X180150714Y-121787142D01*
X180103095Y-121691904D01*
X180055476Y-121501428D01*
X180055476Y-121263333D01*
X180103095Y-121072857D01*
X180150714Y-120977619D01*
X180198333Y-120930000D01*
X180293571Y-120882380D01*
X186515833Y-120137142D02*
X186468214Y-120184761D01*
X186325357Y-120232380D01*
X186230119Y-120232380D01*
X186087261Y-120184761D01*
X185992023Y-120089523D01*
X185944404Y-119994285D01*
X185896785Y-119803809D01*
X185896785Y-119660952D01*
X185944404Y-119470476D01*
X185992023Y-119375238D01*
X186087261Y-119280000D01*
X186230119Y-119232380D01*
X186325357Y-119232380D01*
X186468214Y-119280000D01*
X186515833Y-119327619D01*
X186992023Y-120232380D02*
X187182500Y-120232380D01*
X187277738Y-120184761D01*
X187325357Y-120137142D01*
X187420595Y-119994285D01*
X187468214Y-119803809D01*
X187468214Y-119422857D01*
X187420595Y-119327619D01*
X187372976Y-119280000D01*
X187277738Y-119232380D01*
X187087261Y-119232380D01*
X186992023Y-119280000D01*
X186944404Y-119327619D01*
X186896785Y-119422857D01*
X186896785Y-119660952D01*
X186944404Y-119756190D01*
X186992023Y-119803809D01*
X187087261Y-119851428D01*
X187277738Y-119851428D01*
X187372976Y-119803809D01*
X187420595Y-119756190D01*
X187468214Y-119660952D01*
X191263333Y-117342142D02*
X191215714Y-117389761D01*
X191072857Y-117437380D01*
X190977619Y-117437380D01*
X190834761Y-117389761D01*
X190739523Y-117294523D01*
X190691904Y-117199285D01*
X190644285Y-117008809D01*
X190644285Y-116865952D01*
X190691904Y-116675476D01*
X190739523Y-116580238D01*
X190834761Y-116485000D01*
X190977619Y-116437380D01*
X191072857Y-116437380D01*
X191215714Y-116485000D01*
X191263333Y-116532619D01*
X191834761Y-116865952D02*
X191739523Y-116818333D01*
X191691904Y-116770714D01*
X191644285Y-116675476D01*
X191644285Y-116627857D01*
X191691904Y-116532619D01*
X191739523Y-116485000D01*
X191834761Y-116437380D01*
X192025238Y-116437380D01*
X192120476Y-116485000D01*
X192168095Y-116532619D01*
X192215714Y-116627857D01*
X192215714Y-116675476D01*
X192168095Y-116770714D01*
X192120476Y-116818333D01*
X192025238Y-116865952D01*
X191834761Y-116865952D01*
X191739523Y-116913571D01*
X191691904Y-116961190D01*
X191644285Y-117056428D01*
X191644285Y-117246904D01*
X191691904Y-117342142D01*
X191739523Y-117389761D01*
X191834761Y-117437380D01*
X192025238Y-117437380D01*
X192120476Y-117389761D01*
X192168095Y-117342142D01*
X192215714Y-117246904D01*
X192215714Y-117056428D01*
X192168095Y-116961190D01*
X192120476Y-116913571D01*
X192025238Y-116865952D01*
X167641333Y-113405142D02*
X167593714Y-113452761D01*
X167450857Y-113500380D01*
X167355619Y-113500380D01*
X167212761Y-113452761D01*
X167117523Y-113357523D01*
X167069904Y-113262285D01*
X167022285Y-113071809D01*
X167022285Y-112928952D01*
X167069904Y-112738476D01*
X167117523Y-112643238D01*
X167212761Y-112548000D01*
X167355619Y-112500380D01*
X167450857Y-112500380D01*
X167593714Y-112548000D01*
X167641333Y-112595619D01*
X167974666Y-112500380D02*
X168641333Y-112500380D01*
X168212761Y-113500380D01*
X202788666Y-122997380D02*
X202788666Y-123711666D01*
X202741047Y-123854523D01*
X202645809Y-123949761D01*
X202502952Y-123997380D01*
X202407714Y-123997380D01*
X203264857Y-123997380D02*
X203264857Y-122997380D01*
X203645809Y-122997380D01*
X203741047Y-123045000D01*
X203788666Y-123092619D01*
X203836285Y-123187857D01*
X203836285Y-123330714D01*
X203788666Y-123425952D01*
X203741047Y-123473571D01*
X203645809Y-123521190D01*
X203264857Y-123521190D01*
X204693428Y-123330714D02*
X204693428Y-123997380D01*
X204455333Y-122949761D02*
X204217238Y-123664047D01*
X204836285Y-123664047D01*
X202788666Y-98232380D02*
X202788666Y-98946666D01*
X202741047Y-99089523D01*
X202645809Y-99184761D01*
X202502952Y-99232380D01*
X202407714Y-99232380D01*
X203264857Y-99232380D02*
X203264857Y-98232380D01*
X203645809Y-98232380D01*
X203741047Y-98280000D01*
X203788666Y-98327619D01*
X203836285Y-98422857D01*
X203836285Y-98565714D01*
X203788666Y-98660952D01*
X203741047Y-98708571D01*
X203645809Y-98756190D01*
X203264857Y-98756190D01*
X204217238Y-98327619D02*
X204264857Y-98280000D01*
X204360095Y-98232380D01*
X204598190Y-98232380D01*
X204693428Y-98280000D01*
X204741047Y-98327619D01*
X204788666Y-98422857D01*
X204788666Y-98518095D01*
X204741047Y-98660952D01*
X204169619Y-99232380D01*
X204788666Y-99232380D01*
X202788666Y-87437380D02*
X202788666Y-88151666D01*
X202741047Y-88294523D01*
X202645809Y-88389761D01*
X202502952Y-88437380D01*
X202407714Y-88437380D01*
X203264857Y-88437380D02*
X203264857Y-87437380D01*
X203645809Y-87437380D01*
X203741047Y-87485000D01*
X203788666Y-87532619D01*
X203836285Y-87627857D01*
X203836285Y-87770714D01*
X203788666Y-87865952D01*
X203741047Y-87913571D01*
X203645809Y-87961190D01*
X203264857Y-87961190D01*
X204788666Y-88437380D02*
X204217238Y-88437380D01*
X204502952Y-88437380D02*
X204502952Y-87437380D01*
X204407714Y-87580238D01*
X204312476Y-87675476D01*
X204217238Y-87723095D01*
X202788666Y-111567380D02*
X202788666Y-112281666D01*
X202741047Y-112424523D01*
X202645809Y-112519761D01*
X202502952Y-112567380D01*
X202407714Y-112567380D01*
X203264857Y-112567380D02*
X203264857Y-111567380D01*
X203645809Y-111567380D01*
X203741047Y-111615000D01*
X203788666Y-111662619D01*
X203836285Y-111757857D01*
X203836285Y-111900714D01*
X203788666Y-111995952D01*
X203741047Y-112043571D01*
X203645809Y-112091190D01*
X203264857Y-112091190D01*
X204169619Y-111567380D02*
X204788666Y-111567380D01*
X204455333Y-111948333D01*
X204598190Y-111948333D01*
X204693428Y-111995952D01*
X204741047Y-112043571D01*
X204788666Y-112138809D01*
X204788666Y-112376904D01*
X204741047Y-112472142D01*
X204693428Y-112519761D01*
X204598190Y-112567380D01*
X204312476Y-112567380D01*
X204217238Y-112519761D01*
X204169619Y-112472142D01*
X184953095Y-113897380D02*
X184953095Y-114706904D01*
X185000714Y-114802142D01*
X185048333Y-114849761D01*
X185143571Y-114897380D01*
X185334047Y-114897380D01*
X185429285Y-114849761D01*
X185476904Y-114802142D01*
X185524523Y-114706904D01*
X185524523Y-113897380D01*
X186524523Y-114897380D02*
X185953095Y-114897380D01*
X186238809Y-114897380D02*
X186238809Y-113897380D01*
X186143571Y-114040238D01*
X186048333Y-114135476D01*
X185953095Y-114183095D01*
X203455333Y-109055380D02*
X203122000Y-108579190D01*
X202883904Y-109055380D02*
X202883904Y-108055380D01*
X203264857Y-108055380D01*
X203360095Y-108103000D01*
X203407714Y-108150619D01*
X203455333Y-108245857D01*
X203455333Y-108388714D01*
X203407714Y-108483952D01*
X203360095Y-108531571D01*
X203264857Y-108579190D01*
X202883904Y-108579190D01*
X204312476Y-108388714D02*
X204312476Y-109055380D01*
X204074380Y-108007761D02*
X203836285Y-108722047D01*
X204455333Y-108722047D01*
X185548333Y-99657380D02*
X185215000Y-99181190D01*
X184976904Y-99657380D02*
X184976904Y-98657380D01*
X185357857Y-98657380D01*
X185453095Y-98705000D01*
X185500714Y-98752619D01*
X185548333Y-98847857D01*
X185548333Y-98990714D01*
X185500714Y-99085952D01*
X185453095Y-99133571D01*
X185357857Y-99181190D01*
X184976904Y-99181190D01*
X185881666Y-98657380D02*
X186500714Y-98657380D01*
X186167380Y-99038333D01*
X186310238Y-99038333D01*
X186405476Y-99085952D01*
X186453095Y-99133571D01*
X186500714Y-99228809D01*
X186500714Y-99466904D01*
X186453095Y-99562142D01*
X186405476Y-99609761D01*
X186310238Y-99657380D01*
X186024523Y-99657380D01*
X185929285Y-99609761D01*
X185881666Y-99562142D01*
X181103333Y-99657380D02*
X180770000Y-99181190D01*
X180531904Y-99657380D02*
X180531904Y-98657380D01*
X180912857Y-98657380D01*
X181008095Y-98705000D01*
X181055714Y-98752619D01*
X181103333Y-98847857D01*
X181103333Y-98990714D01*
X181055714Y-99085952D01*
X181008095Y-99133571D01*
X180912857Y-99181190D01*
X180531904Y-99181190D01*
X181484285Y-98752619D02*
X181531904Y-98705000D01*
X181627142Y-98657380D01*
X181865238Y-98657380D01*
X181960476Y-98705000D01*
X182008095Y-98752619D01*
X182055714Y-98847857D01*
X182055714Y-98943095D01*
X182008095Y-99085952D01*
X181436666Y-99657380D01*
X182055714Y-99657380D01*
X178944333Y-99657380D02*
X178611000Y-99181190D01*
X178372904Y-99657380D02*
X178372904Y-98657380D01*
X178753857Y-98657380D01*
X178849095Y-98705000D01*
X178896714Y-98752619D01*
X178944333Y-98847857D01*
X178944333Y-98990714D01*
X178896714Y-99085952D01*
X178849095Y-99133571D01*
X178753857Y-99181190D01*
X178372904Y-99181190D01*
X179896714Y-99657380D02*
X179325285Y-99657380D01*
X179611000Y-99657380D02*
X179611000Y-98657380D01*
X179515761Y-98800238D01*
X179420523Y-98895476D01*
X179325285Y-98943095D01*
X173483333Y-106642380D02*
X173007142Y-106642380D01*
X173007142Y-105642380D01*
X174340476Y-106642380D02*
X173769047Y-106642380D01*
X174054761Y-106642380D02*
X174054761Y-105642380D01*
X173959523Y-105785238D01*
X173864285Y-105880476D01*
X173769047Y-105928095D01*
X183389333Y-99562142D02*
X183341714Y-99609761D01*
X183198857Y-99657380D01*
X183103619Y-99657380D01*
X182960761Y-99609761D01*
X182865523Y-99514523D01*
X182817904Y-99419285D01*
X182770285Y-99228809D01*
X182770285Y-99085952D01*
X182817904Y-98895476D01*
X182865523Y-98800238D01*
X182960761Y-98705000D01*
X183103619Y-98657380D01*
X183198857Y-98657380D01*
X183341714Y-98705000D01*
X183389333Y-98752619D01*
X184246476Y-98657380D02*
X184056000Y-98657380D01*
X183960761Y-98705000D01*
X183913142Y-98752619D01*
X183817904Y-98895476D01*
X183770285Y-99085952D01*
X183770285Y-99466904D01*
X183817904Y-99562142D01*
X183865523Y-99609761D01*
X183960761Y-99657380D01*
X184151238Y-99657380D01*
X184246476Y-99609761D01*
X184294095Y-99562142D01*
X184341714Y-99466904D01*
X184341714Y-99228809D01*
X184294095Y-99133571D01*
X184246476Y-99085952D01*
X184151238Y-99038333D01*
X183960761Y-99038333D01*
X183865523Y-99085952D01*
X183817904Y-99133571D01*
X183770285Y-99228809D01*
X185167333Y-112389142D02*
X185119714Y-112436761D01*
X184976857Y-112484380D01*
X184881619Y-112484380D01*
X184738761Y-112436761D01*
X184643523Y-112341523D01*
X184595904Y-112246285D01*
X184548285Y-112055809D01*
X184548285Y-111912952D01*
X184595904Y-111722476D01*
X184643523Y-111627238D01*
X184738761Y-111532000D01*
X184881619Y-111484380D01*
X184976857Y-111484380D01*
X185119714Y-111532000D01*
X185167333Y-111579619D01*
X186072095Y-111484380D02*
X185595904Y-111484380D01*
X185548285Y-111960571D01*
X185595904Y-111912952D01*
X185691142Y-111865333D01*
X185929238Y-111865333D01*
X186024476Y-111912952D01*
X186072095Y-111960571D01*
X186119714Y-112055809D01*
X186119714Y-112293904D01*
X186072095Y-112389142D01*
X186024476Y-112436761D01*
X185929238Y-112484380D01*
X185691142Y-112484380D01*
X185595904Y-112436761D01*
X185548285Y-112389142D01*
X183643333Y-106547142D02*
X183595714Y-106594761D01*
X183452857Y-106642380D01*
X183357619Y-106642380D01*
X183214761Y-106594761D01*
X183119523Y-106499523D01*
X183071904Y-106404285D01*
X183024285Y-106213809D01*
X183024285Y-106070952D01*
X183071904Y-105880476D01*
X183119523Y-105785238D01*
X183214761Y-105690000D01*
X183357619Y-105642380D01*
X183452857Y-105642380D01*
X183595714Y-105690000D01*
X183643333Y-105737619D01*
X184500476Y-105975714D02*
X184500476Y-106642380D01*
X184262380Y-105594761D02*
X184024285Y-106309047D01*
X184643333Y-106309047D01*
X183643333Y-109087142D02*
X183595714Y-109134761D01*
X183452857Y-109182380D01*
X183357619Y-109182380D01*
X183214761Y-109134761D01*
X183119523Y-109039523D01*
X183071904Y-108944285D01*
X183024285Y-108753809D01*
X183024285Y-108610952D01*
X183071904Y-108420476D01*
X183119523Y-108325238D01*
X183214761Y-108230000D01*
X183357619Y-108182380D01*
X183452857Y-108182380D01*
X183595714Y-108230000D01*
X183643333Y-108277619D01*
X183976666Y-108182380D02*
X184595714Y-108182380D01*
X184262380Y-108563333D01*
X184405238Y-108563333D01*
X184500476Y-108610952D01*
X184548095Y-108658571D01*
X184595714Y-108753809D01*
X184595714Y-108991904D01*
X184548095Y-109087142D01*
X184500476Y-109134761D01*
X184405238Y-109182380D01*
X184119523Y-109182380D01*
X184024285Y-109134761D01*
X183976666Y-109087142D01*
X179198333Y-111627142D02*
X179150714Y-111674761D01*
X179007857Y-111722380D01*
X178912619Y-111722380D01*
X178769761Y-111674761D01*
X178674523Y-111579523D01*
X178626904Y-111484285D01*
X178579285Y-111293809D01*
X178579285Y-111150952D01*
X178626904Y-110960476D01*
X178674523Y-110865238D01*
X178769761Y-110770000D01*
X178912619Y-110722380D01*
X179007857Y-110722380D01*
X179150714Y-110770000D01*
X179198333Y-110817619D01*
X179579285Y-110817619D02*
X179626904Y-110770000D01*
X179722142Y-110722380D01*
X179960238Y-110722380D01*
X180055476Y-110770000D01*
X180103095Y-110817619D01*
X180150714Y-110912857D01*
X180150714Y-111008095D01*
X180103095Y-111150952D01*
X179531666Y-111722380D01*
X180150714Y-111722380D01*
X175893333Y-117342142D02*
X175845714Y-117389761D01*
X175702857Y-117437380D01*
X175607619Y-117437380D01*
X175464761Y-117389761D01*
X175369523Y-117294523D01*
X175321904Y-117199285D01*
X175274285Y-117008809D01*
X175274285Y-116865952D01*
X175321904Y-116675476D01*
X175369523Y-116580238D01*
X175464761Y-116485000D01*
X175607619Y-116437380D01*
X175702857Y-116437380D01*
X175845714Y-116485000D01*
X175893333Y-116532619D01*
X176845714Y-117437380D02*
X176274285Y-117437380D01*
X176560000Y-117437380D02*
X176560000Y-116437380D01*
X176464761Y-116580238D01*
X176369523Y-116675476D01*
X176274285Y-116723095D01*
M02*
