G04 #@! TF.GenerationSoftware,KiCad,Pcbnew,(5.1.5)-3*
G04 #@! TF.CreationDate,2023-10-15T16:11:26+02:00*
G04 #@! TF.ProjectId,486VRM,34383656-524d-42e6-9b69-6361645f7063,rev?*
G04 #@! TF.SameCoordinates,Original*
G04 #@! TF.FileFunction,Legend,Bot*
G04 #@! TF.FilePolarity,Positive*
%FSLAX46Y46*%
G04 Gerber Fmt 4.6, Leading zero omitted, Abs format (unit mm)*
G04 Created by KiCad (PCBNEW (5.1.5)-3) date 2023-10-15 16:11:26*
%MOMM*%
%LPD*%
G04 APERTURE LIST*
%ADD10C,0.150000*%
%ADD11C,0.300000*%
%ADD12C,0.200000*%
%ADD13C,0.120000*%
G04 APERTURE END LIST*
D10*
X187595238Y-106642380D02*
X187595238Y-105642380D01*
X187595238Y-106594761D02*
X187690476Y-106642380D01*
X187880952Y-106642380D01*
X187976190Y-106594761D01*
X188023809Y-106547142D01*
X188071428Y-106451904D01*
X188071428Y-106166190D01*
X188023809Y-106070952D01*
X187976190Y-106023333D01*
X187880952Y-105975714D01*
X187690476Y-105975714D01*
X187595238Y-106023333D01*
X186738095Y-106594761D02*
X186833333Y-106642380D01*
X187023809Y-106642380D01*
X187119047Y-106594761D01*
X187166666Y-106499523D01*
X187166666Y-106118571D01*
X187119047Y-106023333D01*
X187023809Y-105975714D01*
X186833333Y-105975714D01*
X186738095Y-106023333D01*
X186690476Y-106118571D01*
X186690476Y-106213809D01*
X187166666Y-106309047D01*
X186309523Y-106594761D02*
X186214285Y-106642380D01*
X186023809Y-106642380D01*
X185928571Y-106594761D01*
X185880952Y-106499523D01*
X185880952Y-106451904D01*
X185928571Y-106356666D01*
X186023809Y-106309047D01*
X186166666Y-106309047D01*
X186261904Y-106261428D01*
X186309523Y-106166190D01*
X186309523Y-106118571D01*
X186261904Y-106023333D01*
X186166666Y-105975714D01*
X186023809Y-105975714D01*
X185928571Y-106023333D01*
X185452380Y-106642380D02*
X185452380Y-105975714D01*
X185452380Y-105642380D02*
X185500000Y-105690000D01*
X185452380Y-105737619D01*
X185404761Y-105690000D01*
X185452380Y-105642380D01*
X185452380Y-105737619D01*
X184547619Y-105975714D02*
X184547619Y-106785238D01*
X184595238Y-106880476D01*
X184642857Y-106928095D01*
X184738095Y-106975714D01*
X184880952Y-106975714D01*
X184976190Y-106928095D01*
X184547619Y-106594761D02*
X184642857Y-106642380D01*
X184833333Y-106642380D01*
X184928571Y-106594761D01*
X184976190Y-106547142D01*
X185023809Y-106451904D01*
X185023809Y-106166190D01*
X184976190Y-106070952D01*
X184928571Y-106023333D01*
X184833333Y-105975714D01*
X184642857Y-105975714D01*
X184547619Y-106023333D01*
X184071428Y-105975714D02*
X184071428Y-106642380D01*
X184071428Y-106070952D02*
X184023809Y-106023333D01*
X183928571Y-105975714D01*
X183785714Y-105975714D01*
X183690476Y-106023333D01*
X183642857Y-106118571D01*
X183642857Y-106642380D01*
X182785714Y-106594761D02*
X182880952Y-106642380D01*
X183071428Y-106642380D01*
X183166666Y-106594761D01*
X183214285Y-106499523D01*
X183214285Y-106118571D01*
X183166666Y-106023333D01*
X183071428Y-105975714D01*
X182880952Y-105975714D01*
X182785714Y-106023333D01*
X182738095Y-106118571D01*
X182738095Y-106213809D01*
X183214285Y-106309047D01*
X181880952Y-106642380D02*
X181880952Y-105642380D01*
X181880952Y-106594761D02*
X181976190Y-106642380D01*
X182166666Y-106642380D01*
X182261904Y-106594761D01*
X182309523Y-106547142D01*
X182357142Y-106451904D01*
X182357142Y-106166190D01*
X182309523Y-106070952D01*
X182261904Y-106023333D01*
X182166666Y-105975714D01*
X181976190Y-105975714D01*
X181880952Y-106023333D01*
X180642857Y-106642380D02*
X180642857Y-105642380D01*
X180642857Y-106023333D02*
X180547619Y-105975714D01*
X180357142Y-105975714D01*
X180261904Y-106023333D01*
X180214285Y-106070952D01*
X180166666Y-106166190D01*
X180166666Y-106451904D01*
X180214285Y-106547142D01*
X180261904Y-106594761D01*
X180357142Y-106642380D01*
X180547619Y-106642380D01*
X180642857Y-106594761D01*
X179833333Y-105975714D02*
X179595238Y-106642380D01*
X179357142Y-105975714D02*
X179595238Y-106642380D01*
X179690476Y-106880476D01*
X179738095Y-106928095D01*
X179833333Y-106975714D01*
X178214285Y-106642380D02*
X178214285Y-105642380D01*
X177880952Y-106356666D01*
X177547619Y-105642380D01*
X177547619Y-106642380D01*
X177071428Y-106642380D02*
X177071428Y-105642380D01*
X176500000Y-106642380D02*
X176928571Y-106070952D01*
X176500000Y-105642380D02*
X177071428Y-106213809D01*
X175357142Y-105737619D02*
X175309523Y-105690000D01*
X175214285Y-105642380D01*
X174976190Y-105642380D01*
X174880952Y-105690000D01*
X174833333Y-105737619D01*
X174785714Y-105832857D01*
X174785714Y-105928095D01*
X174833333Y-106070952D01*
X175404761Y-106642380D01*
X174785714Y-106642380D01*
X174166666Y-105642380D02*
X174071428Y-105642380D01*
X173976190Y-105690000D01*
X173928571Y-105737619D01*
X173880952Y-105832857D01*
X173833333Y-106023333D01*
X173833333Y-106261428D01*
X173880952Y-106451904D01*
X173928571Y-106547142D01*
X173976190Y-106594761D01*
X174071428Y-106642380D01*
X174166666Y-106642380D01*
X174261904Y-106594761D01*
X174309523Y-106547142D01*
X174357142Y-106451904D01*
X174404761Y-106261428D01*
X174404761Y-106023333D01*
X174357142Y-105832857D01*
X174309523Y-105737619D01*
X174261904Y-105690000D01*
X174166666Y-105642380D01*
X173452380Y-105737619D02*
X173404761Y-105690000D01*
X173309523Y-105642380D01*
X173071428Y-105642380D01*
X172976190Y-105690000D01*
X172928571Y-105737619D01*
X172880952Y-105832857D01*
X172880952Y-105928095D01*
X172928571Y-106070952D01*
X173500000Y-106642380D01*
X172880952Y-106642380D01*
X172547619Y-105642380D02*
X171928571Y-105642380D01*
X172261904Y-106023333D01*
X172119047Y-106023333D01*
X172023809Y-106070952D01*
X171976190Y-106118571D01*
X171928571Y-106213809D01*
X171928571Y-106451904D01*
X171976190Y-106547142D01*
X172023809Y-106594761D01*
X172119047Y-106642380D01*
X172404761Y-106642380D01*
X172500000Y-106594761D01*
X172547619Y-106547142D01*
D11*
X188619047Y-103221428D02*
X188619047Y-104554761D01*
X189095238Y-102459523D02*
X189571428Y-103888095D01*
X188333333Y-103888095D01*
X187285714Y-103411904D02*
X187476190Y-103316666D01*
X187571428Y-103221428D01*
X187666666Y-103030952D01*
X187666666Y-102935714D01*
X187571428Y-102745238D01*
X187476190Y-102650000D01*
X187285714Y-102554761D01*
X186904761Y-102554761D01*
X186714285Y-102650000D01*
X186619047Y-102745238D01*
X186523809Y-102935714D01*
X186523809Y-103030952D01*
X186619047Y-103221428D01*
X186714285Y-103316666D01*
X186904761Y-103411904D01*
X187285714Y-103411904D01*
X187476190Y-103507142D01*
X187571428Y-103602380D01*
X187666666Y-103792857D01*
X187666666Y-104173809D01*
X187571428Y-104364285D01*
X187476190Y-104459523D01*
X187285714Y-104554761D01*
X186904761Y-104554761D01*
X186714285Y-104459523D01*
X186619047Y-104364285D01*
X186523809Y-104173809D01*
X186523809Y-103792857D01*
X186619047Y-103602380D01*
X186714285Y-103507142D01*
X186904761Y-103411904D01*
X184809523Y-102554761D02*
X185190476Y-102554761D01*
X185380952Y-102650000D01*
X185476190Y-102745238D01*
X185666666Y-103030952D01*
X185761904Y-103411904D01*
X185761904Y-104173809D01*
X185666666Y-104364285D01*
X185571428Y-104459523D01*
X185380952Y-104554761D01*
X185000000Y-104554761D01*
X184809523Y-104459523D01*
X184714285Y-104364285D01*
X184619047Y-104173809D01*
X184619047Y-103697619D01*
X184714285Y-103507142D01*
X184809523Y-103411904D01*
X185000000Y-103316666D01*
X185380952Y-103316666D01*
X185571428Y-103411904D01*
X185666666Y-103507142D01*
X185761904Y-103697619D01*
X184047619Y-102554761D02*
X183380952Y-104554761D01*
X182714285Y-102554761D01*
X180904761Y-104554761D02*
X181571428Y-103602380D01*
X182047619Y-104554761D02*
X182047619Y-102554761D01*
X181285714Y-102554761D01*
X181095238Y-102650000D01*
X181000000Y-102745238D01*
X180904761Y-102935714D01*
X180904761Y-103221428D01*
X181000000Y-103411904D01*
X181095238Y-103507142D01*
X181285714Y-103602380D01*
X182047619Y-103602380D01*
X180047619Y-104554761D02*
X180047619Y-102554761D01*
X179380952Y-103983333D01*
X178714285Y-102554761D01*
X178714285Y-104554761D01*
X177761904Y-103792857D02*
X176238095Y-103792857D01*
X174904761Y-102554761D02*
X174714285Y-102554761D01*
X174523809Y-102650000D01*
X174428571Y-102745238D01*
X174333333Y-102935714D01*
X174238095Y-103316666D01*
X174238095Y-103792857D01*
X174333333Y-104173809D01*
X174428571Y-104364285D01*
X174523809Y-104459523D01*
X174714285Y-104554761D01*
X174904761Y-104554761D01*
X175095238Y-104459523D01*
X175190476Y-104364285D01*
X175285714Y-104173809D01*
X175380952Y-103792857D01*
X175380952Y-103316666D01*
X175285714Y-102935714D01*
X175190476Y-102745238D01*
X175095238Y-102650000D01*
X174904761Y-102554761D01*
X173000000Y-102554761D02*
X172809523Y-102554761D01*
X172619047Y-102650000D01*
X172523809Y-102745238D01*
X172428571Y-102935714D01*
X172333333Y-103316666D01*
X172333333Y-103792857D01*
X172428571Y-104173809D01*
X172523809Y-104364285D01*
X172619047Y-104459523D01*
X172809523Y-104554761D01*
X173000000Y-104554761D01*
X173190476Y-104459523D01*
X173285714Y-104364285D01*
X173380952Y-104173809D01*
X173476190Y-103792857D01*
X173476190Y-103316666D01*
X173380952Y-102935714D01*
X173285714Y-102745238D01*
X173190476Y-102650000D01*
X173000000Y-102554761D01*
X170428571Y-104554761D02*
X171571428Y-104554761D01*
X171000000Y-104554761D02*
X171000000Y-102554761D01*
X171190476Y-102840476D01*
X171380952Y-103030952D01*
X171571428Y-103126190D01*
D12*
X156965000Y-87500000D02*
G75*
G03X156965000Y-87500000I-100000J0D01*
G01*
D13*
X156745000Y-88500000D02*
X156745000Y-98630000D01*
X157865000Y-87380000D02*
X156745000Y-88500000D01*
X167995000Y-87380000D02*
X157865000Y-87380000D01*
X156745000Y-130080000D02*
X156745000Y-118830000D01*
X167995000Y-132620000D02*
X156745000Y-132620000D01*
X201985000Y-87380000D02*
X201985000Y-98630000D01*
X190735000Y-87380000D02*
X201985000Y-87380000D01*
X201985000Y-130080000D02*
X201985000Y-118830000D01*
X190735000Y-132620000D02*
X201985000Y-132620000D01*
X201985000Y-87380000D02*
X201985000Y-98630000D01*
X190735000Y-87380000D02*
X201985000Y-87380000D01*
X201985000Y-87380000D02*
X201985000Y-98630000D01*
X190735000Y-87380000D02*
X201985000Y-87380000D01*
X203959078Y-99915000D02*
X203441922Y-99915000D01*
X203959078Y-98495000D02*
X203441922Y-98495000D01*
D10*
X180507857Y-83258571D02*
X180365000Y-83306190D01*
X180317380Y-83353809D01*
X180269761Y-83449047D01*
X180269761Y-83591904D01*
X180317380Y-83687142D01*
X180365000Y-83734761D01*
X180460238Y-83782380D01*
X180841190Y-83782380D01*
X180841190Y-82782380D01*
X180507857Y-82782380D01*
X180412619Y-82830000D01*
X180365000Y-82877619D01*
X180317380Y-82972857D01*
X180317380Y-83068095D01*
X180365000Y-83163333D01*
X180412619Y-83210952D01*
X180507857Y-83258571D01*
X180841190Y-83258571D01*
X179698333Y-83782380D02*
X179793571Y-83734761D01*
X179841190Y-83687142D01*
X179888809Y-83591904D01*
X179888809Y-83306190D01*
X179841190Y-83210952D01*
X179793571Y-83163333D01*
X179698333Y-83115714D01*
X179555476Y-83115714D01*
X179460238Y-83163333D01*
X179412619Y-83210952D01*
X179365000Y-83306190D01*
X179365000Y-83591904D01*
X179412619Y-83687142D01*
X179460238Y-83734761D01*
X179555476Y-83782380D01*
X179698333Y-83782380D01*
X179079285Y-83115714D02*
X178698333Y-83115714D01*
X178936428Y-82782380D02*
X178936428Y-83639523D01*
X178888809Y-83734761D01*
X178793571Y-83782380D01*
X178698333Y-83782380D01*
X177841190Y-83782380D02*
X178412619Y-83782380D01*
X178126904Y-83782380D02*
X178126904Y-82782380D01*
X178222142Y-82925238D01*
X178317380Y-83020476D01*
X178412619Y-83068095D01*
X203867166Y-97752380D02*
X204200500Y-97276190D01*
X204438595Y-97752380D02*
X204438595Y-96752380D01*
X204057642Y-96752380D01*
X203962404Y-96800000D01*
X203914785Y-96847619D01*
X203867166Y-96942857D01*
X203867166Y-97085714D01*
X203914785Y-97180952D01*
X203962404Y-97228571D01*
X204057642Y-97276190D01*
X204438595Y-97276190D01*
X202962404Y-96752380D02*
X203438595Y-96752380D01*
X203486214Y-97228571D01*
X203438595Y-97180952D01*
X203343357Y-97133333D01*
X203105261Y-97133333D01*
X203010023Y-97180952D01*
X202962404Y-97228571D01*
X202914785Y-97323809D01*
X202914785Y-97561904D01*
X202962404Y-97657142D01*
X203010023Y-97704761D01*
X203105261Y-97752380D01*
X203343357Y-97752380D01*
X203438595Y-97704761D01*
X203486214Y-97657142D01*
M02*
