M48
; DRILL file {KiCad (5.1.5)-3} date 15.10.2023 16:11:35
; FORMAT={-:-/ absolute / metric / decimal}
; #@! TF.CreationDate,2023-10-15T16:11:35+02:00
; #@! TF.GenerationSoftware,Kicad,Pcbnew,(5.1.5)-3
; #@! TF.FileFunction,Plated,1,2,PTH
FMAT,2
METRIC
T1C0.300
T2C0.400
T3C1.000
%
G90
G05
T1
X157.902Y-89.045
X157.902Y-91.585
X157.902Y-94.125
X157.902Y-96.665
X157.902Y-99.205
X157.902Y-101.745
X157.902Y-104.285
X157.902Y-106.825
X157.902Y-111.905
X157.902Y-114.445
X157.902Y-116.985
X157.902Y-119.525
X157.902Y-122.065
X157.902Y-124.605
X157.902Y-127.145
X157.902Y-129.685
X158.41Y-90.823
X158.41Y-93.363
X158.41Y-95.903
X158.41Y-98.443
X158.41Y-100.983
X158.41Y-103.523
X158.41Y-106.063
X158.41Y-108.603
X158.41Y-113.683
X158.41Y-116.223
X158.41Y-118.763
X158.41Y-121.303
X158.41Y-123.843
X158.41Y-126.383
X158.41Y-128.923
X158.41Y-131.463
X159.68Y-88.537
X159.68Y-91.077
X159.68Y-93.617
X159.68Y-96.157
X159.68Y-98.697
X159.68Y-101.237
X159.68Y-103.777
X159.68Y-106.317
X159.68Y-111.397
X159.68Y-113.937
X159.68Y-116.477
X159.68Y-121.557
X159.68Y-124.097
X159.68Y-126.637
X159.68Y-129.177
X160.188Y-90.315
X160.188Y-100.475
X160.188Y-105.555
X160.188Y-108.095
X160.188Y-113.175
X160.188Y-115.715
X160.188Y-118.255
X160.188Y-120.795
X160.188Y-123.335
X160.188Y-125.875
X160.188Y-128.415
X160.188Y-130.955
X160.442Y-89.045
X160.442Y-106.825
X160.442Y-109.365
X160.442Y-114.445
X160.442Y-119.525
X160.442Y-122.065
X160.442Y-124.605
X160.442Y-127.145
X160.442Y-129.685
X160.95Y-93.363
X160.95Y-95.903
X160.95Y-98.443
X160.95Y-103.523
X160.95Y-116.223
X160.95Y-121.303
X160.95Y-126.383
X160.95Y-128.923
X160.95Y-131.463
X162.22Y-88.537
X162.22Y-93.617
X162.22Y-96.157
X162.22Y-121.557
X162.22Y-124.097
X162.22Y-129.177
X162.728Y-90.315
X162.728Y-92.855
X162.728Y-95.395
X162.728Y-97.935
X162.728Y-103.015
X162.728Y-108.095
X162.728Y-110.635
X162.728Y-115.715
X162.728Y-120.795
X162.728Y-123.335
X162.728Y-125.875
X162.728Y-130.955
X162.982Y-89.045
X162.982Y-91.585
X162.982Y-94.125
X162.982Y-96.665
X162.982Y-99.205
X162.982Y-101.745
X162.982Y-104.285
X162.982Y-106.825
X162.982Y-109.365
X162.982Y-111.905
X162.982Y-114.445
X162.982Y-116.985
X162.982Y-119.525
X162.982Y-122.065
X162.982Y-124.605
X162.982Y-129.685
X163.49Y-93.363
X163.49Y-95.903
X163.49Y-121.303
X163.49Y-126.383
X163.49Y-131.463
X164.76Y-88.537
X164.76Y-91.077
X164.76Y-96.157
X164.76Y-121.557
X165.268Y-90.315
X165.268Y-92.855
X165.268Y-95.395
X165.268Y-97.935
X165.268Y-100.475
X165.268Y-103.015
X165.268Y-105.555
X165.268Y-108.095
X165.268Y-110.635
X165.268Y-113.175
X165.268Y-115.715
X165.268Y-118.255
X165.268Y-120.795
X165.268Y-123.335
X165.268Y-130.955
X165.522Y-89.045
X165.522Y-91.585
X165.522Y-127.145
X165.522Y-129.685
X166.03Y-93.363
X166.03Y-126.383
X166.03Y-128.923
X166.03Y-131.463
X167.3Y-88.537
X167.3Y-91.077
X167.3Y-124.097
X167.3Y-126.637
X167.808Y-90.315
X167.808Y-92.855
X167.808Y-128.415
X167.808Y-130.955
X168.062Y-89.045
X168.062Y-91.585
X168.062Y-127.145
X168.062Y-129.685
X168.57Y-93.363
X168.57Y-126.383
X168.57Y-131.463
X169.84Y-88.537
X169.84Y-91.077
X169.84Y-124.097
X169.84Y-126.637
X170.348Y-90.315
X170.348Y-92.855
X170.348Y-128.415
X170.348Y-130.955
X170.602Y-89.045
X170.602Y-91.585
X170.729Y-129.685
X171.11Y-93.363
X171.11Y-95.903
X171.11Y-126.383
X171.237Y-131.463
X172.38Y-88.537
X172.38Y-93.617
X172.38Y-124.097
X172.507Y-129.177
X172.888Y-90.315
X173.015Y-130.955
X173.142Y-89.045
X173.142Y-129.685
X173.65Y-90.823
X173.65Y-95.903
X173.65Y-126.383
X174.92Y-88.537
X174.92Y-93.617
X174.92Y-124.097
X174.92Y-126.637
X175.428Y-90.315
X175.428Y-95.395
X175.428Y-128.415
X175.428Y-130.955
X175.682Y-89.045
X175.682Y-91.585
X175.682Y-94.125
X175.682Y-129.685
X176.19Y-95.903
X176.19Y-126.383
X176.19Y-131.463
X177.46Y-88.537
X177.46Y-124.097
X177.46Y-129.177
X177.968Y-90.315
X177.968Y-92.855
X177.968Y-125.875
X177.968Y-130.955
X178.222Y-89.045
X178.222Y-124.605
X178.222Y-129.685
X178.73Y-90.823
X178.73Y-95.903
X178.73Y-126.383
X178.73Y-131.463
X180.0Y-88.537
X180.0Y-93.617
X180.0Y-124.097
X180.0Y-129.177
X180.315Y-113.495
X180.508Y-90.315
X180.508Y-95.395
X180.508Y-125.875
X180.508Y-130.955
X180.762Y-89.045
X180.762Y-91.585
X180.762Y-94.125
X180.762Y-112.413
X180.762Y-124.605
X180.762Y-129.685
X181.27Y-95.903
X181.27Y-126.383
X181.27Y-131.463
X182.54Y-88.537
X182.54Y-124.097
X182.54Y-129.177
X183.048Y-90.315
X183.048Y-92.855
X183.048Y-125.875
X183.048Y-130.955
X183.302Y-89.045
X183.302Y-124.605
X183.429Y-129.685
X183.81Y-90.823
X183.81Y-95.903
X183.81Y-126.383
X183.937Y-131.463
X185.08Y-88.537
X185.08Y-93.617
X185.08Y-124.097
X185.08Y-129.304
X185.588Y-90.315
X185.715Y-128.415
X185.842Y-89.045
X186.35Y-90.823
X186.35Y-93.363
X186.35Y-95.903
X186.35Y-126.383
X186.35Y-131.463
X186.604Y-128.796
X187.62Y-88.537
X187.62Y-91.077
X187.62Y-93.617
X187.62Y-124.097
X187.62Y-126.637
X187.62Y-129.177
X188.128Y-90.315
X188.128Y-92.855
X188.128Y-95.395
X188.128Y-130.955
X188.382Y-89.045
X188.382Y-94.125
X188.382Y-129.685
X188.89Y-90.823
X188.89Y-95.903
X188.89Y-126.383
X188.89Y-128.923
X188.89Y-131.463
X189.525Y-110.254
X190.16Y-88.537
X190.16Y-93.617
X190.16Y-124.097
X190.16Y-126.637
X190.16Y-129.177
X190.668Y-90.315
X190.668Y-95.395
X190.668Y-130.955
X190.922Y-89.045
X190.922Y-91.585
X190.922Y-94.125
X190.922Y-129.685
X191.43Y-90.823
X191.43Y-95.903
X191.43Y-126.383
X191.43Y-131.463
X192.7Y-88.537
X192.7Y-91.077
X192.7Y-124.097
X192.7Y-129.177
X193.208Y-90.315
X193.208Y-92.855
X193.208Y-95.395
X193.208Y-130.955
X193.462Y-89.045
X193.462Y-91.585
X193.462Y-94.125
X193.462Y-96.665
X193.462Y-99.205
X193.462Y-101.745
X193.462Y-104.285
X193.462Y-106.825
X193.462Y-109.365
X193.462Y-111.016
X193.462Y-111.905
X193.462Y-114.445
X193.462Y-116.985
X193.462Y-119.525
X193.462Y-122.065
X193.462Y-127.145
X193.462Y-129.685
X193.97Y-90.823
X193.97Y-95.903
X193.97Y-100.983
X193.97Y-116.223
X193.97Y-123.843
X193.97Y-126.383
X193.97Y-128.923
X193.97Y-131.463
X195.24Y-88.537
X195.24Y-91.077
X195.24Y-96.157
X195.24Y-101.237
X195.24Y-116.477
X195.24Y-124.097
X195.24Y-126.637
X195.24Y-129.177
X195.748Y-90.315
X195.748Y-92.855
X195.748Y-95.395
X195.748Y-97.935
X195.748Y-100.475
X195.748Y-103.015
X195.748Y-105.555
X195.748Y-108.095
X195.748Y-110.635
X195.748Y-113.175
X195.748Y-115.715
X195.748Y-118.255
X195.748Y-120.795
X195.748Y-123.335
X195.748Y-125.875
X195.748Y-128.415
X195.748Y-130.955
X196.002Y-89.045
X196.002Y-91.585
X196.002Y-94.125
X196.002Y-96.665
X196.002Y-101.745
X196.002Y-109.365
X196.002Y-119.525
X196.002Y-124.605
X196.002Y-127.145
X196.002Y-129.685
X196.51Y-90.823
X196.51Y-95.903
X196.51Y-98.443
X196.51Y-121.303
X196.51Y-126.383
X196.51Y-128.923
X196.51Y-131.463
X197.78Y-88.537
X197.78Y-91.077
X197.78Y-96.157
X197.78Y-101.237
X197.78Y-124.097
X197.78Y-126.637
X197.78Y-129.177
X198.288Y-90.315
X198.288Y-92.855
X198.288Y-95.395
X198.288Y-97.935
X198.288Y-103.015
X198.288Y-110.635
X198.288Y-125.875
X198.288Y-128.415
X198.288Y-130.955
X198.542Y-89.045
X198.542Y-91.585
X198.542Y-94.125
X198.542Y-96.665
X198.542Y-99.205
X198.542Y-101.745
X198.542Y-104.285
X198.542Y-106.825
X198.542Y-109.365
X198.542Y-111.905
X198.542Y-114.445
X198.542Y-116.985
X198.542Y-122.065
X198.542Y-124.605
X198.542Y-129.685
X199.05Y-90.823
X199.05Y-95.903
X199.05Y-100.983
X199.05Y-103.523
X199.05Y-106.063
X199.05Y-108.603
X199.05Y-113.683
X199.05Y-116.223
X199.05Y-118.763
X199.05Y-121.303
X199.05Y-123.843
X199.05Y-126.383
X199.05Y-131.463
X200.32Y-88.537
X200.32Y-91.077
X200.32Y-96.157
X200.32Y-101.237
X200.32Y-103.777
X200.32Y-106.317
X200.32Y-108.857
X200.32Y-113.937
X200.32Y-116.477
X200.32Y-119.017
X200.32Y-121.557
X200.32Y-124.097
X200.32Y-129.177
X200.828Y-90.315
X200.828Y-92.855
X200.828Y-95.395
X200.828Y-97.935
X200.828Y-100.475
X200.828Y-103.015
X200.828Y-105.555
X200.828Y-108.095
X200.828Y-110.635
X200.828Y-113.175
X200.828Y-115.715
X200.828Y-118.255
X200.828Y-120.795
X200.828Y-123.335
X200.828Y-125.875
X200.828Y-130.955
T2
X166.03Y-107.46
X167.935Y-110.0
X167.935Y-112.54
X167.935Y-117.62
X167.935Y-118.89
X167.935Y-120.16
X169.205Y-110.0
X169.84Y-121.43
X171.11Y-111.27
X171.745Y-121.43
X172.38Y-112.54
X173.015Y-121.43
X174.285Y-121.43
X175.555Y-111.27
X175.555Y-112.54
X175.555Y-116.35
X176.19Y-118.255
X176.19Y-119.525
X177.46Y-101.11
X177.46Y-102.38
X179.365Y-111.27
X179.365Y-117.62
X179.365Y-121.43
X180.635Y-98.57
X180.635Y-117.62
X180.635Y-121.43
X181.905Y-98.57
X181.905Y-117.62
X181.905Y-121.43
X183.175Y-98.57
X183.175Y-117.62
X183.175Y-121.43
X183.81Y-104.92
X183.81Y-107.46
X184.445Y-98.57
X184.445Y-117.62
X184.445Y-117.62
X184.445Y-121.43
X185.08Y-104.92
X185.08Y-107.46
X185.715Y-98.57
X185.715Y-114.445
X186.35Y-104.92
X186.35Y-107.46
X186.985Y-114.445
X187.62Y-107.46
X188.255Y-108.73
X188.255Y-111.27
X188.255Y-112.54
X188.255Y-114.445
X188.255Y-117.62
X189.525Y-98.57
X189.525Y-117.62
X189.525Y-121.43
X190.795Y-121.43
X191.43Y-102.38
X191.43Y-103.65
X191.43Y-107.46
X191.43Y-108.73
X191.43Y-111.27
X191.43Y-112.54
X191.43Y-115.08
X191.43Y-116.35
T3
X203.622Y-114.445
X203.622Y-116.985
X203.622Y-119.525
X203.622Y-90.315
X203.622Y-92.855
X203.622Y-95.395
X203.622Y-101.11
X203.622Y-103.65
X203.622Y-106.19
X203.622Y-125.875
X203.622Y-128.415
X203.622Y-130.955
T0
M30
